# File created by Blade
# Date/Time:  Mon Sep 22 19:00:17 2014
# Frame Rate: 120.000 fps
#------------------------------------------------------
:FULLY-SPECIFIED
:DEGREES
2669
root -0.536939 32.817484 -3.405229 40.075656 2.992517 0.634151
Spine -46.076955 -2.338815 -2.655440
Head 10.358460 -17.912122 -4.052517
LeftShoulder -12.187492 41.675944 10.145234
LeftArm 68.568506 33.041051 -53.619900
LeftForeArm 9.111899 0.000000 8.313617
LeftHand -18.867124 -0.000000 -7.210854
LeftHandThumb1 -26.253704 0.000000 33.147579
RightShoulder -23.922681 -10.478934 -41.383949
RightArm -243.009481 35.387574 -222.081496
RightForeArm 80.715698 -0.000000 129.494464
RightHand 27.640264 -0.000000 -11.046255
RightHandThumb1 -24.326973 -0.000000 -32.862282
LeftUpLeg -33.715376 5.231641 -0.989109
LeftLeg -1.141965 -0.000000 0.000000
LeftFoot -1.766670 -1.142227 -3.245431
LeftToeBase 1.862938 -0.000000 -0.000000
RightUpLeg -34.162035 -12.827440 6.629630
RightLeg -2.346967 -0.000000 0.000000
RightFoot -5.688723 -4.097518 20.008011
RightToeBase 16.028653 -0.000000 -0.000000
2670
root -0.534890 32.817321 -3.405741 40.074278 2.989555 0.635225
Spine -46.068501 -2.366957 -2.642803
Head 10.285670 -17.893967 -3.977718
LeftShoulder -12.178522 41.703017 10.134066
LeftArm 68.591862 33.047086 -53.579726
LeftForeArm 9.128698 -0.000000 8.354903
LeftHand -18.890795 -0.000000 -7.232689
LeftHandThumb1 -26.253704 0.000000 33.147579
RightShoulder -23.897956 -10.511478 -41.420341
RightArm -243.016436 35.414801 -222.177101
RightForeArm 80.736927 0.000000 129.381446
RightHand 27.565136 -0.000000 -11.081933
RightHandThumb1 -24.326973 -0.000000 -32.862282
LeftUpLeg -33.713405 5.240117 -1.001136
LeftLeg -1.145459 -0.000000 0.000000
LeftFoot -1.770903 -1.152006 -3.238775
LeftToeBase 1.886356 -0.000000 -0.000000
RightUpLeg -34.161352 -12.814556 6.614260
RightLeg -2.344362 -0.000000 0.000000
RightFoot -5.685786 -4.104374 20.038957
RightToeBase 15.999628 -0.000000 -0.000000
2671
root -0.533536 32.817058 -3.406408 40.073759 2.984721 0.635603
Spine -46.061709 -2.398358 -2.630823
Head 10.219771 -17.879538 -3.901567
LeftShoulder -12.179297 41.719194 10.122349
LeftArm 68.616212 33.061159 -53.532081
LeftForeArm 9.117241 0.000000 8.381027
LeftHand -18.874605 -0.000000 -7.217643
LeftHandThumb1 -26.253704 0.000000 33.147579
RightShoulder -23.866976 -10.558794 -41.446467
RightArm -243.022214 35.432726 -222.270989
RightForeArm 80.654341 0.000000 129.311600
RightHand 27.502339 -0.000000 -11.056129
RightHandThumb1 -24.326973 -0.000000 -32.862282
LeftUpLeg -33.718857 5.259483 -1.019018
LeftLeg -1.137268 -0.000000 0.000000
LeftFoot -1.777534 -1.170992 -3.227759
LeftToeBase 1.880223 -0.000000 -0.000000
RightUpLeg -34.168177 -12.806619 6.607034
RightLeg -2.330691 -0.000000 0.000000
RightFoot -5.703306 -4.129216 20.028840
RightToeBase 16.029718 -0.000000 -0.000000
2672
root -0.532444 32.817155 -3.407304 40.074078 2.977719 0.635399
Spine -46.056260 -2.423099 -2.623680
Head 10.160807 -17.864015 -3.834991
LeftShoulder -12.182649 41.750796 10.099798
LeftArm 68.642400 33.048651 -53.501922
LeftForeArm 9.156581 -0.000000 8.393914
LeftHand -18.848216 -0.000000 -7.232145
LeftHandThumb1 -26.253704 0.000000 33.147579
RightShoulder -23.841750 -10.619973 -41.471677
RightArm -243.036853 35.456357 -222.368778
RightForeArm 80.636242 -0.000000 129.256874
RightHand 27.511799 -0.000000 -10.937958
RightHandThumb1 -24.326973 -0.000000 -32.862282
LeftUpLeg -33.717055 5.254497 -1.018337
LeftLeg -1.140494 -0.000000 0.000000
LeftFoot -1.770922 -1.155259 -3.226761
LeftToeBase 1.879777 -0.000000 -0.000000
RightUpLeg -34.175949 -12.808563 6.606630
RightLeg -2.320304 -0.000000 0.000000
RightFoot -5.703704 -4.124151 19.995446
RightToeBase 16.034789 -0.000000 -0.000000
